<svg width="666" height="496" viewBox="0 0 666 496" fill="none" xmlns="http://www.w3.org/2000/svg">
<path d="M665.665 435.877H0V436.21H665.665V435.877Z" fill="#E6E6E6"/>
<path d="M166.177 456.02H122.083V456.353H166.177V456.02Z" fill="#E6E6E6"/>
<path d="M108.13 456.02H82.5822V456.353H108.13V456.02Z" fill="#E6E6E6"/>
<path d="M280.311 460.919H254.763V461.252H280.311V460.919Z" fill="#E6E6E6"/>
<path d="M413.524 468.348H356.024V468.681H413.524V468.348Z" fill="#E6E6E6"/>
<path d="M344.175 468.348H335.748V468.681H344.175V468.348Z" fill="#E6E6E6"/>
<path d="M603.558 460.919H478.839V461.252H603.558V460.919Z" fill="#E6E6E6"/>
<path d="M315.525 376.5H58.4588C56.445 376.496 54.5148 375.694 53.0921 374.269C51.6693 372.843 50.8702 370.912 50.8702 368.898V7.53532C50.8878 5.53304 51.6946 3.61852 53.1155 2.20763C54.5363 0.796745 56.4565 0.00343002 58.4588 0H315.525C317.541 0 319.475 0.800911 320.901 2.22654C322.326 3.65217 323.127 5.58574 323.127 7.60189V368.898C323.127 370.914 322.326 372.848 320.901 374.273C319.475 375.699 317.541 376.5 315.525 376.5ZM58.4588 0.266267C56.5333 0.269794 54.6878 1.03719 53.3274 2.40002C51.9671 3.76285 51.2031 5.60975 51.2031 7.53532V368.898C51.2031 370.824 51.9671 372.67 53.3274 374.033C54.6878 375.396 56.5333 376.164 58.4588 376.167H315.525C317.452 376.164 319.299 375.397 320.661 374.034C322.024 372.672 322.791 370.825 322.794 368.898V7.53532C322.791 5.60853 322.024 3.76166 320.661 2.39921C319.299 1.03676 317.452 0.269786 315.525 0.266267H58.4588Z" fill="#E6E6E6"/>
<path d="M603.505 376.5H346.425C344.41 376.496 342.479 375.694 341.054 374.269C339.629 372.845 338.827 370.913 338.823 368.898V7.53532C338.844 5.53182 339.654 3.61732 341.077 2.2068C342.5 0.79628 344.422 0.00339261 346.425 0H603.505C605.505 0.0069289 607.422 0.801792 608.84 2.21231C610.258 3.62282 611.063 5.53534 611.08 7.53532V368.898C611.08 370.91 610.283 372.839 608.863 374.264C607.443 375.689 605.516 376.493 603.505 376.5ZM346.425 0.266267C344.498 0.269786 342.652 1.03676 341.289 2.39921C339.927 3.76166 339.16 5.60853 339.156 7.53532V368.898C339.16 370.825 339.927 372.672 341.289 374.034C342.652 375.397 344.498 376.164 346.425 376.167H603.505C605.432 376.164 607.279 375.397 608.641 374.034C610.003 372.672 610.77 370.825 610.774 368.898V7.53532C610.77 5.60853 610.003 3.76166 608.641 2.39921C607.279 1.03676 605.432 0.269786 603.505 0.266267H346.425Z" fill="#E6E6E6"/>
<path d="M355.997 322.155H326.721V438.287H355.997V322.155Z" fill="#E0E0E0"/>
<path d="M350.433 438.287H355.997V422.471H344.601L350.433 438.287Z" fill="#FAFAFA"/>
<path d="M227.71 322.155H198.434V438.287H227.71V322.155Z" fill="#E0E0E0"/>
<path d="M355.998 322.155H222.865V428.581H355.998V322.155Z" fill="#FAFAFA"/>
<path d="M351.165 327.387V355.545H227.657V327.387H351.125H351.165ZM351.644 326.868H227.178V356.051H351.684V326.868H351.644Z" fill="#E0E0E0"/>
<path d="M228.416 438.287H222.865V422.471H234.247L228.416 438.287Z" fill="#FAFAFA"/>
<path d="M286.489 341.459C286.489 342.041 286.661 342.61 286.985 343.094C287.308 343.578 287.767 343.955 288.305 344.178C288.843 344.4 289.434 344.458 290.005 344.345C290.576 344.231 291.1 343.951 291.511 343.54C291.923 343.128 292.203 342.604 292.317 342.033C292.43 341.463 292.372 340.871 292.149 340.333C291.926 339.796 291.549 339.336 291.065 339.013C290.582 338.69 290.013 338.517 289.431 338.517C288.651 338.517 287.902 338.827 287.35 339.379C286.799 339.931 286.489 340.679 286.489 341.459Z" fill="#E6E6E6"/>
<path d="M351.165 361.283V389.44H227.657V361.283H351.125H351.165ZM351.644 360.777H227.178V389.96H351.684V360.79L351.644 360.777Z" fill="#E0E0E0"/>
<path d="M286.489 375.435C286.489 376.017 286.661 376.586 286.985 377.07C287.308 377.553 287.767 377.93 288.305 378.153C288.843 378.376 289.434 378.434 290.005 378.321C290.576 378.207 291.1 377.927 291.511 377.515C291.923 377.104 292.203 376.58 292.317 376.009C292.43 375.438 292.372 374.847 292.149 374.309C291.926 373.771 291.549 373.312 291.065 372.989C290.582 372.665 290.013 372.493 289.431 372.493C288.651 372.493 287.902 372.803 287.35 373.354C286.799 373.906 286.489 374.655 286.489 375.435Z" fill="#E6E6E6"/>
<path d="M351.165 395.192V423.363H227.657V395.192H351.125H351.165ZM351.644 394.672H227.178V423.869H351.684V394.672H351.644Z" fill="#E0E0E0"/>
<path d="M286.489 409.277C286.491 409.859 286.666 410.426 286.991 410.908C287.316 411.39 287.776 411.765 288.314 411.986C288.852 412.207 289.443 412.263 290.013 412.148C290.583 412.033 291.106 411.752 291.516 411.34C291.926 410.928 292.205 410.403 292.318 409.833C292.43 409.263 292.371 408.672 292.148 408.135C291.925 407.598 291.548 407.139 291.064 406.817C290.581 406.494 290.012 406.322 289.431 406.322C289.043 406.322 288.66 406.398 288.302 406.547C287.944 406.696 287.619 406.913 287.346 407.188C287.072 407.463 286.856 407.789 286.709 408.147C286.562 408.506 286.487 408.89 286.489 409.277Z" fill="#E6E6E6"/>
<path d="M209.831 254.71H180.555V438.3H209.831V254.71Z" fill="#E0E0E0"/>
<path d="M204.266 438.287H209.831V422.471H198.448L204.266 438.287Z" fill="#FAFAFA"/>
<path d="M100.422 254.71H71.1464V438.3H100.422V254.71Z" fill="#E0E0E0"/>
<path d="M209.831 254.71H95.5627V428.595H209.831V254.71Z" fill="#FAFAFA"/>
<path d="M204.905 259.609V298.977H100.489V259.609H204.905ZM205.517 259.01H99.8496V299.549H205.491V259.023L205.517 259.01Z" fill="#E0E0E0"/>
<path d="M204.905 303.783V408.199H155.166V303.783H204.905ZM205.517 303.17H154.567V408.811H205.517V303.17Z" fill="#E0E0E0"/>
<path d="M150.227 303.783V408.199H100.489V303.783H150.227ZM150.826 303.17H99.8496V408.811H150.8V303.17H150.826Z" fill="#E0E0E0"/>
<path d="M101.128 438.287H95.5627V422.471H106.959L101.128 438.287Z" fill="#FAFAFA"/>
<path d="M149.748 279.313C149.745 279.898 149.916 280.471 150.24 280.958C150.563 281.446 151.023 281.827 151.563 282.053C152.103 282.279 152.698 282.339 153.272 282.227C153.846 282.114 154.374 281.834 154.789 281.421C155.203 281.008 155.486 280.481 155.601 279.908C155.716 279.334 155.659 278.739 155.435 278.198C155.212 277.657 154.833 277.195 154.347 276.87C153.861 276.544 153.289 276.371 152.703 276.371C151.922 276.371 151.172 276.68 150.618 277.232C150.064 277.783 149.751 278.531 149.748 279.313Z" fill="#E6E6E6"/>
<path d="M160.292 353.508C160.292 354.093 160.466 354.665 160.791 355.151C161.116 355.638 161.579 356.016 162.12 356.24C162.66 356.463 163.255 356.521 163.829 356.406C164.403 356.29 164.929 356.008 165.342 355.593C165.755 355.178 166.035 354.65 166.148 354.076C166.26 353.502 166.2 352.907 165.974 352.368C165.749 351.828 165.368 351.367 164.88 351.044C164.392 350.721 163.819 350.55 163.234 350.552C162.847 350.552 162.463 350.629 162.105 350.778C161.747 350.926 161.422 351.144 161.149 351.419C160.876 351.693 160.659 352.019 160.512 352.378C160.365 352.736 160.29 353.12 160.292 353.508Z" fill="#E6E6E6"/>
<path d="M139.217 353.508C139.22 354.089 139.395 354.657 139.72 355.139C140.045 355.621 140.505 355.996 141.043 356.217C141.581 356.437 142.172 356.494 142.742 356.379C143.312 356.264 143.835 355.982 144.245 355.57C144.655 355.158 144.934 354.634 145.046 354.064C145.159 353.493 145.1 352.902 144.877 352.365C144.653 351.829 144.276 351.37 143.793 351.047C143.309 350.724 142.741 350.552 142.16 350.552C141.772 350.552 141.388 350.629 141.031 350.777C140.673 350.926 140.348 351.144 140.074 351.419C139.801 351.693 139.585 352.019 139.437 352.378C139.29 352.736 139.216 353.12 139.217 353.508Z" fill="#E6E6E6"/>
<path d="M135.889 203.52H123.547C124.685 209.507 125.401 215.566 125.691 221.653C125.691 228.31 116.292 254.71 129.685 254.71C143.078 254.71 133.679 228.376 133.679 221.653C133.991 215.565 134.729 209.505 135.889 203.52Z" fill="#E0E0E0"/>
<path d="M88.9329 230.52V238.508C88.9469 242.79 90.6542 246.893 93.6822 249.921C96.7102 252.949 100.813 254.656 105.095 254.67H113.083C117.365 254.656 121.468 252.949 124.496 249.921C127.524 246.893 129.231 242.79 129.246 238.508V230.52H88.9329Z" fill="#F5F5F5"/>
<path d="M260.501 305.221C260.501 314.54 270.925 322.155 283.666 322.155H295.169C307.91 322.155 318.334 314.54 318.334 305.221H260.501Z" fill="#E0E0E0"/>
<path d="M565.296 291.561C558.32 297.259 548.681 307.683 539.867 322.355C533.983 332.127 530.442 342.325 528.884 355.878C528.884 340.567 528.977 324.125 529.03 308.602C530.801 304.608 534.848 295.395 537.751 288.126C547.429 263.856 551.064 257.878 559.757 236.95C571.38 208.992 583.282 175.895 579.874 178.545C572.924 183.936 546.298 233.795 543.422 240.931C535.583 259.974 530.738 280.116 529.057 300.641C529.057 285.996 529.163 272.683 529.217 262.352C529.403 228.656 529.976 217.779 530.255 214.424C531.333 212.72 532.598 210.736 533.344 209.671C539.601 200.618 542.011 192.923 547.895 179.423C556.256 160.319 563.445 126.383 561.342 128.087C552.582 135.223 545.685 150.533 536.606 170.064C527.526 189.595 530.122 200.818 528.325 217.486C527.952 220.761 527.659 233.116 527.446 250.223C525.103 231.984 520.683 219.975 512.628 209.059C502.723 195.625 493.138 186.559 486.108 181.82C479.079 177.08 498.25 210.07 507.409 224.422C515.571 237.256 523.093 248.559 527.379 259.702C527.153 282.907 527.047 312.277 527.047 339.582C524.943 327.147 521.508 313.741 516.928 303.37C511.417 290.909 502.95 271.791 496.2 265.307C494.589 263.75 503.256 300.934 508.821 310.812C514.386 320.691 518.473 330.023 521.974 335.628C522.786 336.959 525.502 341.978 527.047 344.881C527.047 378.257 527.233 407.706 527.526 417.731H528.964C528.871 415.148 528.844 398.161 528.884 375.688C532.359 363.493 540.293 349.567 546.843 336.866C553.979 323.114 572.272 285.903 565.296 291.561Z" fill="#E0E0E0"/>
<path d="M549.094 438.287H507.37L504.214 397.388H552.249L549.094 438.287Z" fill="#F0F0F0"/>
<path d="M555.351 402.155H501.099L499.555 388.349H556.908L555.351 402.155Z" fill="#F5F5F5"/>
<path d="M165.431 27.2923H90.8099V109.236H165.431V27.2923Z" fill="#E0E0E0"/>
<path d="M173.512 27.2923H96.4281V109.236H173.512V27.2923Z" fill="#F5F5F5"/>
<path d="M167.055 102.779V33.7492L102.885 33.7492V102.779H167.055Z" fill="white"/>
<path d="M151.492 86.0305V50.4707H118.435V86.0305H151.492Z" fill="#F5F5F5"/>
<path d="M545.912 36.8379H476.589V112.963H545.912V36.8379Z" fill="#E0E0E0"/>
<path d="M553.42 36.8379H481.821V112.963H553.42V36.8379Z" fill="#F5F5F5"/>
<path d="M547.429 106.959V42.8422L487.826 42.8422V106.959H547.429Z" fill="white"/>
<path d="M517.621 93.4993C527.893 93.4993 536.219 85.1723 536.219 74.9006C536.219 64.6288 527.893 56.3019 517.621 56.3019C507.349 56.3019 499.022 64.6288 499.022 74.9006C499.022 85.1723 507.349 93.4993 517.621 93.4993Z" fill="#F5F5F5"/>
<path d="M242.954 76.152H187.598V136.94H242.954V76.152Z" fill="#E0E0E0"/>
<path d="M248.945 76.152H191.764V136.94H248.945V76.152Z" fill="#F5F5F5"/>
<path d="M244.152 132.148V80.9448H196.557V132.148H244.152Z" fill="white"/>
<path d="M220.362 93.5924L207.341 116.145H233.382L220.362 93.5924Z" fill="#F5F5F5"/>
<path d="M332.832 496C475.394 496 590.964 489.253 590.964 480.929C590.964 472.606 475.394 465.859 332.832 465.859C190.27 465.859 74.7008 472.606 74.7008 480.929C74.7008 489.253 190.27 496 332.832 496Z" fill="#F5F5F5"/>
<path d="M464.967 144.356L451.76 139.031C451.76 139.031 434.333 170.81 429.34 172.42C422.551 174.604 408.492 180.675 400.158 181.74C399.026 183.071 397.176 187.212 397.349 188.716C408.545 192.457 433.148 187.491 438.42 183.577C450.415 174.697 464.967 144.356 464.967 144.356Z" fill="#E58A7B"/>
<path d="M469.027 137.127C471.49 146.22 458.15 164.512 458.15 164.512L440.67 154.714C440.67 154.714 443.945 147.192 447.939 139.537C454.343 127.169 466.218 126.756 469.027 137.127Z" fill="#455A64"/>
<path opacity="0.2" d="M469.027 137.127C471.49 146.22 458.15 164.512 458.15 164.512L440.67 154.714C440.67 154.714 443.945 147.192 447.939 139.537C454.343 127.169 466.218 126.756 469.027 137.127Z" fill="black"/>
<path opacity="0.2" d="M447.606 158.628L454.489 162.489L455.701 141.361C451.693 144.436 448.871 153.702 447.606 158.628Z" fill="black"/>
<path d="M457.525 130.284C457.525 130.284 443.918 160.558 451.853 216.927H505.466C506.318 208.699 503.495 168.546 513.707 129.778C507.825 128.629 501.875 127.868 495.893 127.501C488.307 127.062 480.701 127.062 473.114 127.501C467.855 128.035 462.644 128.966 457.525 130.284Z" fill="#455A64"/>
<path opacity="0.2" d="M457.525 130.284C457.525 130.284 443.918 160.558 451.853 216.927H505.466C506.318 208.699 503.495 168.546 513.707 129.778C507.825 128.629 501.875 127.868 495.893 127.501C488.307 127.062 480.701 127.062 473.114 127.501C467.855 128.035 462.644 128.966 457.525 130.284Z" fill="black"/>
<g style="mix-blend-mode:multiply">
<path d="M445.09 482.128C445.01 483.565 465.34 484.724 490.488 484.724C515.637 484.724 536.113 483.565 536.193 482.128C536.273 480.69 515.957 479.545 490.795 479.545C465.632 479.545 445.183 480.703 445.09 482.128Z" fill="#E8ECF1"/>
</g>
<path d="M480.877 444.348L471.368 448.029L479.559 469.189L489.068 465.508L480.877 444.348Z" fill="#E58A7B"/>
<path d="M523.279 471.89H513.254L509.58 448.684H519.605L523.279 471.89Z" fill="#E58A7B"/>
<path d="M512.562 470.731H523.825C524.02 470.732 524.209 470.802 524.358 470.929C524.506 471.055 524.605 471.231 524.637 471.424L526.088 480.33C526.118 480.554 526.101 480.781 526.035 480.997C525.97 481.213 525.859 481.412 525.71 481.582C525.561 481.751 525.378 481.886 525.172 481.978C524.966 482.07 524.742 482.116 524.517 482.114C520.589 482.048 518.699 481.808 513.746 481.808C510.698 481.808 504.427 482.128 500.193 482.128C495.96 482.128 495.68 477.974 497.424 477.588C505.253 475.897 508.288 473.594 510.897 471.357C511.357 470.953 511.949 470.731 512.562 470.731Z" fill="#263238"/>
<path d="M479.278 467.296L489.929 464.181C490.119 464.128 490.322 464.141 490.504 464.218C490.685 464.296 490.835 464.433 490.928 464.607L494.922 472.595C495.014 472.798 495.062 473.018 495.061 473.241C495.059 473.464 495.009 473.684 494.914 473.886C494.819 474.087 494.681 474.266 494.51 474.408C494.339 474.551 494.139 474.655 493.923 474.712C490.049 475.777 487.453 476.429 482.607 477.841C479.265 478.813 475.857 480.397 472.555 481.449C470.265 482.181 464.887 482.207 462.104 482.207C457.991 482.207 457.072 477.867 458.843 477.668C463.303 477.175 463.902 477.401 466.365 476.163C470.395 474.402 474.047 471.879 477.122 468.734C477.702 468.074 478.446 467.578 479.278 467.296Z" fill="#263238"/>
<path d="M401.835 181.686L390.812 177.067L386.272 189.288C390.79 189.977 395.386 189.977 399.905 189.288L401.835 181.686Z" fill="#E58A7B"/>
<path d="M382.611 176.747L382.318 184.868L386.272 189.262L390.812 177.04L382.611 176.747Z" fill="#E58A7B"/>
<path d="M482.181 446.145L472.643 449.827L476.867 460.769L486.406 457.087L482.181 446.145Z" fill="#CF6F64"/>
<path d="M519.605 448.684H509.58L511.484 460.653H521.508L519.605 448.684Z" fill="#CF6F64"/>
<path opacity="0.2" d="M450.149 201.683C450.349 204.093 450.575 206.556 450.868 209.085L490.728 196.145C496.953 194.3 502.363 190.388 506.065 185.055C506.225 181.5 506.424 177.759 506.731 173.858C506.864 171.968 507.024 170.024 507.197 168.054C507.37 166.083 507.609 163.9 507.862 161.796L450.149 201.683Z" fill="black"/>
<path d="M463.169 158.015L461.838 157.856C462.624 151.199 467.589 145.954 472.822 146.087V147.418C468.242 147.325 463.875 152.051 463.169 158.015Z" fill="white"/>
<path d="M470.266 170.304H470.039V168.972C474.619 169.145 478.919 164.366 479.625 158.415L480.956 158.575C480.25 165.085 475.444 170.304 470.266 170.304Z" fill="white"/>
<path d="M495.148 101.847C493.271 109.182 491.061 122.615 495.894 127.501C495.894 127.501 492.512 134.943 478.893 134.943C466.445 134.943 473.115 127.501 473.115 127.501C481.395 125.558 481.542 119.513 480.45 113.789L495.148 101.847Z" fill="#E58A7B"/>
<path d="M489.157 106.719L480.463 113.789C480.733 115.104 480.889 116.44 480.929 117.783C483.472 120.312 488.571 113.909 489.09 110.633C489.354 109.344 489.377 108.017 489.157 106.719Z" fill="#CF6F64"/>
<path d="M465.513 101.753C466.118 102.802 466.932 103.714 467.906 104.434C468.88 105.153 469.991 105.664 471.171 105.934C474.366 106.639 475.964 103.697 475.085 100.742C474.3 98.079 471.677 94.4977 468.428 95.1101C467.733 95.2534 467.081 95.5614 466.529 96.0082C465.977 96.4551 465.539 97.0277 465.254 97.6783C464.968 98.3289 464.843 99.0383 464.888 99.7473C464.933 100.456 465.147 101.144 465.513 101.753Z" fill="#CF6F64"/>
<path d="M470.798 78.2821C465.819 80.5587 464.062 100.342 470.319 103.271C476.576 106.2 480.224 73.9553 470.798 78.2821Z" fill="#263238"/>
<path d="M496.666 90.81C495.468 100.742 495.334 106.586 490.009 111.672C488.359 113.36 486.274 114.558 483.986 115.136C481.697 115.714 479.294 115.647 477.04 114.945C474.787 114.243 472.771 112.931 471.216 111.155C469.661 109.379 468.627 107.209 468.229 104.882C466.618 95.9622 468.841 81.2244 478.799 77.2704C480.892 76.3475 483.193 76.001 485.464 76.2669C487.735 76.5328 489.894 77.4014 491.717 78.7826C493.539 80.1638 494.959 82.0074 495.83 84.1222C496.7 86.237 496.988 88.546 496.666 90.81Z" fill="#E58A7B"/>
<path d="M480.304 83.4211C487.679 81.5439 493.098 80.2658 491.154 86.4032C488.585 94.6042 485.496 102.539 489.636 102.898C492.166 103.125 503.349 98.3852 501.924 93.5791C500.686 89.3987 505.918 88.2538 506.85 86.137C510.299 78.4685 500.433 79.4803 502.191 74.8207C503.948 70.161 494.203 62.6523 488.877 66.3934C480.21 72.4376 465.34 72.3444 473.154 62.3994C478.759 55.3034 468.761 56.7545 468.761 56.7545C468.761 56.7545 474.805 60.3358 464.634 65.8742C453.877 71.7853 463.742 87.668 480.304 83.4211Z" fill="#263238"/>
<path d="M500.58 101.753C499.124 103.86 496.936 105.35 494.442 105.934C491.154 106.639 489.889 103.697 491.127 100.742C492.232 98.079 495.268 94.4977 498.41 95.1101C501.552 95.7225 502.271 99.144 500.58 101.753Z" fill="#E58A7B"/>
<path d="M451.853 216.927C451.853 216.927 442.853 297.472 442.148 328.039C441.429 359.832 472.648 459.029 472.648 459.029L488.624 452.372C488.624 452.372 469.986 361.735 472.648 330.516C475.471 296.474 487.133 216.98 487.133 216.98L451.853 216.927Z" fill="#455A64"/>
<path opacity="0.2" d="M474.219 239.04C467.044 253.924 471.876 283.36 475.764 300.8C477.241 288.486 478.999 275.119 480.663 262.751C480.503 243.74 479.025 229.055 474.219 239.04Z" fill="black"/>
<path d="M487.919 447.1C487.999 447.1 489.809 452.186 489.809 452.186L471.384 459.934L468.481 454.529L487.919 447.1Z" fill="#455A64"/>
<path d="M470.878 216.927C470.878 216.927 477.761 293.531 482.314 322.222C487.32 353.654 506.943 458.337 506.943 458.337H525.302C525.302 458.337 514.306 356.197 512.229 325.071C509.966 291.308 505.466 216.927 505.466 216.927H470.878Z" fill="#455A64"/>
<path d="M525.582 453.557C525.662 453.557 526.195 458.683 526.195 458.683H506.012L504.574 452.798L525.582 453.557Z" fill="#455A64"/>
<path opacity="0.2" d="M518.553 447.486C518.511 447.487 518.471 447.472 518.439 447.446C518.407 447.419 518.386 447.381 518.38 447.34C518.273 446.408 508.355 354.147 506.491 326.189C504.467 295.861 500.394 228.589 500.354 227.91C500.352 227.888 500.355 227.866 500.362 227.845C500.369 227.824 500.38 227.805 500.395 227.789C500.41 227.772 500.429 227.759 500.449 227.751C500.469 227.742 500.491 227.737 500.513 227.737C500.557 227.737 500.599 227.754 500.631 227.783C500.663 227.813 500.683 227.853 500.686 227.897C500.686 228.576 504.8 295.795 506.824 326.176C508.688 354.134 518.606 446.328 518.699 447.327C518.703 447.349 518.702 447.371 518.697 447.393C518.691 447.415 518.681 447.435 518.667 447.452C518.654 447.47 518.636 447.484 518.617 447.495C518.597 447.505 518.575 447.512 518.553 447.513V447.486Z" fill="black"/>
<path d="M481.435 93.5791C481.435 94.3912 480.929 95.0436 480.397 95.0436C479.864 95.0436 479.478 94.3912 479.531 93.5791C479.585 92.767 480.037 92.1147 480.57 92.1147C481.102 92.1147 481.488 92.7803 481.435 93.5791Z" fill="#263238"/>
<path d="M472.303 93.5791C472.303 94.3912 471.783 95.0436 471.264 95.0436C470.745 95.0436 470.346 94.3912 470.385 93.5791C470.425 92.767 470.905 92.1147 471.437 92.1147C471.97 92.1147 472.356 92.7803 472.303 93.5791Z" fill="#263238"/>
<path d="M475.178 93.9919C474.067 96.4717 472.634 98.7948 470.918 100.901C472.249 102.233 474.739 101.62 474.739 101.62L475.178 93.9919Z" fill="#DF5753"/>
<path d="M475.418 105.015C475.387 105.015 475.356 105.009 475.328 104.997C475.299 104.985 475.274 104.967 475.253 104.944C475.231 104.922 475.215 104.895 475.204 104.866C475.194 104.837 475.189 104.806 475.191 104.776C475.195 104.711 475.223 104.65 475.27 104.605C475.317 104.561 475.379 104.536 475.444 104.536C476.462 104.543 477.469 104.322 478.391 103.889C479.312 103.456 480.125 102.822 480.769 102.033C480.816 101.993 480.875 101.971 480.936 101.971C480.997 101.971 481.056 101.993 481.102 102.033C481.145 102.078 481.169 102.137 481.169 102.199C481.169 102.262 481.145 102.321 481.102 102.366C480.413 103.204 479.544 103.877 478.56 104.335C477.577 104.794 476.503 105.026 475.418 105.015Z" fill="#263238"/>
<path d="M483.06 91.1294C482.996 91.1622 482.925 91.1792 482.853 91.1792C482.782 91.1792 482.711 91.1622 482.647 91.1294C482.149 90.8075 481.582 90.6072 480.992 90.5448C480.403 90.4823 479.806 90.5595 479.252 90.77C479.198 90.797 479.139 90.8129 479.079 90.8168C479.018 90.8207 478.958 90.8125 478.901 90.7927C478.844 90.7728 478.791 90.7417 478.746 90.7012C478.702 90.6608 478.665 90.6117 478.64 90.557C478.59 90.4385 478.589 90.3054 478.636 90.1861C478.684 90.0667 478.775 89.9705 478.893 89.9179C479.589 89.6337 480.343 89.5215 481.092 89.5911C481.84 89.6606 482.561 89.9097 483.193 90.3173C483.244 90.352 483.287 90.3965 483.321 90.4482C483.355 90.4999 483.378 90.5578 483.389 90.6185C483.4 90.6792 483.399 90.7415 483.386 90.8018C483.373 90.862 483.348 90.9191 483.313 90.9697C483.245 91.046 483.158 91.1015 483.06 91.1294Z" fill="#263238"/>
<path d="M468.774 88.4668C468.704 88.4496 468.639 88.4127 468.588 88.3603C468.544 88.3169 468.509 88.2651 468.485 88.208C468.461 88.1508 468.448 88.0895 468.448 88.0275C468.448 87.9655 468.461 87.9041 468.485 87.847C468.509 87.7898 468.544 87.738 468.588 87.6946C469.098 87.1223 469.734 86.6756 470.445 86.3892C471.156 86.1029 471.924 85.9847 472.689 86.0438C472.75 86.0532 472.808 86.0752 472.861 86.1082C472.913 86.1412 472.958 86.1847 472.993 86.2359C473.028 86.287 473.052 86.3448 473.064 86.4057C473.076 86.4665 473.075 86.5292 473.061 86.5896C473.033 86.7129 472.96 86.8215 472.857 86.8951C472.754 86.9686 472.628 87.002 472.502 86.989C471.897 86.9509 471.292 87.051 470.731 87.2816C470.171 87.5123 469.67 87.8675 469.267 88.3204C469.206 88.3877 469.128 88.4371 469.041 88.4629C468.954 88.4888 468.862 88.4901 468.774 88.4668Z" fill="#263238"/>
<path d="M518.859 142.878L505.013 139.19C505.013 139.19 491.434 172.62 486.628 174.79C480.104 177.772 463.582 188.104 456.553 192.99C456.167 194.654 456.473 199.06 457.352 200.272C469.334 198.088 492.272 189.262 497.065 184.775C507.995 174.537 518.859 142.878 518.859 142.878Z" fill="#E58A7B"/>
<path d="M509.193 472.489C508.518 472.542 507.845 472.359 507.29 471.969C507.118 471.815 506.99 471.618 506.918 471.398C506.845 471.179 506.831 470.945 506.877 470.718C506.885 470.577 506.932 470.44 507.011 470.323C507.091 470.206 507.201 470.112 507.33 470.052C508.448 469.48 511.576 471.464 511.936 471.69C511.975 471.714 512.006 471.751 512.023 471.794C512.04 471.837 512.042 471.885 512.029 471.93C512.018 471.976 511.995 472.019 511.962 472.054C511.929 472.089 511.888 472.115 511.843 472.129C510.975 472.343 510.087 472.463 509.193 472.489ZM507.862 470.412C507.761 470.389 507.657 470.389 507.556 470.412C507.505 470.438 507.463 470.478 507.434 470.528C507.406 470.577 507.393 470.634 507.396 470.691C507.361 470.846 507.367 471.008 507.413 471.16C507.46 471.312 507.546 471.449 507.662 471.557C508.182 472.023 509.486 472.076 511.204 471.743C510.181 471.07 509.029 470.616 507.822 470.412H507.862Z" fill="#455A64"/>
<path d="M511.776 472.129C511.742 472.14 511.704 472.14 511.67 472.129C510.671 471.57 508.794 469.373 509.074 468.255C509.116 468.078 509.216 467.92 509.358 467.806C509.501 467.693 509.677 467.63 509.859 467.629C510.038 467.605 510.22 467.62 510.392 467.673C510.564 467.726 510.723 467.816 510.858 467.936C511.963 468.881 512.029 471.783 512.029 471.93C512.036 471.973 512.027 472.018 512.006 472.056C511.984 472.095 511.95 472.125 511.909 472.143C511.865 472.152 511.818 472.147 511.776 472.129ZM509.992 468.069H509.899C509.593 468.069 509.553 468.242 509.54 468.308C509.38 468.961 510.565 470.625 511.55 471.41C511.545 470.286 511.197 469.189 510.551 468.268C510.397 468.134 510.197 468.062 509.992 468.069Z" fill="#455A64"/>
<path d="M473.847 470.825C473.032 471.109 472.145 471.109 471.33 470.825C471.145 470.724 470.989 470.579 470.875 470.402C470.761 470.225 470.693 470.023 470.678 469.813C470.661 469.681 470.678 469.547 470.727 469.424C470.776 469.301 470.855 469.192 470.958 469.107C472.023 468.149 476.376 469.107 476.869 469.294C476.916 469.306 476.957 469.333 476.986 469.372C477.015 469.411 477.03 469.458 477.029 469.507C477.03 469.556 477.018 469.606 476.992 469.649C476.966 469.691 476.927 469.725 476.882 469.746C475.902 470.189 474.886 470.549 473.847 470.825ZM471.677 469.24C471.524 469.271 471.382 469.34 471.264 469.44C471.221 469.472 471.189 469.515 471.17 469.564C471.151 469.614 471.147 469.668 471.157 469.72C471.166 469.859 471.21 469.995 471.284 470.113C471.358 470.232 471.461 470.33 471.583 470.399C472.289 470.771 473.927 470.478 476.043 469.586C474.617 469.227 473.141 469.11 471.677 469.24Z" fill="#455A64"/>
<path d="M476.842 469.746H476.736C475.404 469.506 472.742 467.975 472.662 466.83C472.662 466.564 472.782 466.191 473.421 465.978C473.637 465.902 473.866 465.869 474.095 465.883C474.323 465.896 474.547 465.956 474.752 466.058C476.19 466.764 476.949 469.32 476.989 469.44C476.998 469.48 476.997 469.522 476.985 469.562C476.974 469.601 476.952 469.637 476.922 469.666C476.902 469.699 476.875 469.726 476.842 469.746ZM473.687 466.378H473.554C473.141 466.524 473.141 466.697 473.141 466.751C473.141 467.443 475.072 468.708 476.416 469.134C476.107 468.064 475.451 467.128 474.552 466.471C474.285 466.335 473.977 466.302 473.687 466.378Z" fill="#455A64"/>
<path d="M457.684 192.204L443.799 198.594L442.188 202.588L447.313 206.036C447.313 206.036 456.899 204.998 459.628 198.834L457.684 192.204Z" fill="#E58A7B"/>
<path d="M458.27 200.498C457.96 197.83 457.079 195.26 455.687 192.963L457.884 191.312C459.536 193.959 460.591 196.935 460.973 200.032L458.27 200.498Z" fill="#263238"/>
<path d="M460.64 194.094C460.933 194.556 461.078 195.097 461.053 195.644C461.028 196.19 460.836 196.716 460.501 197.149C460.167 197.582 459.708 197.902 459.185 198.065C458.663 198.228 458.103 198.226 457.582 198.059C457.061 197.893 456.604 197.57 456.273 197.134C455.942 196.698 455.753 196.171 455.732 195.625C455.711 195.078 455.859 194.538 456.156 194.078C456.453 193.619 456.884 193.262 457.391 193.056C457.96 192.766 458.621 192.712 459.229 192.907C459.838 193.101 460.344 193.528 460.64 194.094Z" fill="#263238"/>
<path d="M434.413 203.76L436.263 205.624L448.724 200.298L443.798 198.594L434.413 203.76Z" fill="#E58A7B"/>
<path opacity="0.2" d="M487.919 447.1C487.999 447.1 489.809 452.186 489.809 452.186L471.384 459.934L468.481 454.529L487.919 447.1Z" fill="black"/>
<path opacity="0.2" d="M525.582 453.557C525.662 453.557 526.195 458.683 526.195 458.683H506.012L504.574 452.798L525.582 453.557Z" fill="black"/>
<path d="M522.467 139.044C526.128 150.853 511.816 167.002 511.816 167.002L492.046 158.934C494.389 152.109 497.091 145.412 500.14 138.871C506.211 125.784 518.766 127.129 522.467 139.044Z" fill="#455A64"/>
<path opacity="0.2" d="M522.467 139.044C526.128 150.853 511.816 167.002 511.816 167.002L492.046 158.934C494.389 152.109 497.091 145.412 500.14 138.871C506.211 125.784 518.766 127.129 522.467 139.044Z" fill="black"/>
<path d="M326.016 20.7288H317.509V22.1H326.016V20.7288Z" fill="#455A64"/>
<path d="M436.141 75.0025L435.111 97.8515L436.481 97.9132L437.511 75.0642L436.141 75.0025Z" fill="#455A64"/>
<path d="M433.494 26.8795H276.397L261.779 354.014H418.876L433.494 26.8795Z" fill="#455A64"/>
<path opacity="0.56" d="M428.807 31.3794H271.711L257.093 358.514H414.189L428.807 31.3794Z" fill="#FAFAFA"/>
<path opacity="0.07" d="M424.121 35.866H267.024L252.393 363H409.49L424.121 35.866Z" fill="#455A64"/>
<path d="M406.241 178.545H272.15L271.032 203.574H405.123L406.241 178.545Z" fill="white"/>
<path d="M345.892 160.279H272.962L272.469 171.475H345.4L345.892 160.279Z" fill="#455A64"/>
<path d="M403.22 246.096H269.128L268.01 271.125H402.101L403.22 246.096Z" fill="white"/>
<path opacity="0.47" d="M378.63 304.928H288.459L287.114 334.922H377.285L378.63 304.928Z" fill="#455A64"/>
<path d="M372.599 339.582H282.428C282.389 339.592 282.348 339.592 282.308 339.582C282.295 339.543 282.295 339.501 282.308 339.462L283.64 309.454C283.639 309.434 283.644 309.414 283.652 309.395C283.66 309.376 283.672 309.359 283.687 309.346C283.702 309.332 283.72 309.321 283.739 309.315C283.759 309.308 283.779 309.306 283.799 309.308H373.97C373.987 309.299 374.005 309.295 374.024 309.295C374.042 309.295 374.06 309.299 374.077 309.308C374.086 309.324 374.091 309.342 374.091 309.361C374.091 309.38 374.086 309.398 374.077 309.414L372.772 339.489C372.756 339.52 372.731 339.546 372.7 339.562C372.669 339.579 372.634 339.586 372.599 339.582ZM282.588 339.263H372.439L373.771 309.574H283.919L282.588 339.263Z" fill="white"/>
<path d="M330.143 227.83H269.94L269.448 239.04H329.637L330.143 227.83Z" fill="#455A64"/>
<path d="M376.912 97.6929C376.568 104.977 373.978 111.976 369.497 117.729C366.18 122.075 361.911 125.603 357.019 128.042C352.126 130.482 346.74 131.768 341.273 131.802C336.855 131.835 332.477 130.964 328.409 129.242C324.34 127.519 320.668 124.982 317.617 121.787C314.566 118.592 312.202 114.805 310.67 110.662C309.138 106.518 308.47 102.104 308.708 97.6929C309.177 88.5387 313.124 79.9091 319.744 73.569C326.364 67.2289 335.156 63.6571 344.322 63.5842C348.743 63.543 353.125 64.4088 357.199 66.1282C361.272 67.8475 364.949 70.3838 368.004 73.5805C371.058 76.7771 373.425 80.5662 374.957 84.7135C376.489 88.8608 377.155 93.2782 376.912 97.6929Z" fill="white"/>
<path d="M380.121 70.7202C380.034 72.657 379.345 74.5186 378.151 76.0455C377.267 77.1997 376.13 78.1367 374.829 78.7851C373.528 79.4334 372.096 79.7759 370.642 79.7865C369.233 79.7951 367.844 79.4586 366.595 78.8065C365.347 78.1544 364.277 77.2064 363.479 76.0455C362.423 74.4767 361.9 72.6094 361.988 70.7202C362.117 68.2897 363.168 65.9999 364.927 64.3176C366.686 62.6354 369.02 61.6875 371.454 61.6671C372.628 61.6564 373.792 61.8862 374.874 62.3424C375.956 62.7986 376.933 63.4715 377.745 64.3197C378.557 65.1678 379.187 66.1733 379.595 67.2741C380.004 68.3748 380.183 69.5476 380.121 70.7202Z" fill="#455A64"/>
<path d="M286.595 191.059C286.531 192.132 286.063 193.14 285.285 193.882C284.506 194.623 283.476 195.041 282.401 195.053C281.882 195.059 281.368 194.959 280.889 194.758C280.411 194.558 279.978 194.261 279.619 193.887C279.26 193.512 278.981 193.068 278.8 192.582C278.619 192.095 278.54 191.577 278.567 191.059C278.625 189.984 279.091 188.972 279.871 188.229C280.65 187.487 281.684 187.07 282.761 187.065C283.279 187.061 283.793 187.162 284.271 187.364C284.748 187.565 285.18 187.862 285.539 188.236C285.898 188.609 286.177 189.053 286.358 189.538C286.54 190.024 286.62 190.541 286.595 191.059Z" fill="#263238"/>
<path d="M304.541 191.059C304.481 192.133 304.013 193.143 303.234 193.885C302.455 194.627 301.423 195.045 300.348 195.053C299.83 195.057 299.317 194.956 298.84 194.754C298.363 194.553 297.932 194.256 297.574 193.882C297.216 193.508 296.939 193.064 296.759 192.579C296.578 192.093 296.5 191.576 296.527 191.059C296.584 189.986 297.049 188.976 297.826 188.234C298.602 187.492 299.633 187.074 300.707 187.065C301.226 187.059 301.741 187.159 302.219 187.36C302.698 187.56 303.13 187.857 303.49 188.231C303.849 188.606 304.128 189.05 304.309 189.536C304.49 190.023 304.569 190.541 304.541 191.059Z" fill="#263238"/>
<path d="M322.501 191.059C322.44 192.133 321.973 193.143 321.194 193.885C320.415 194.627 319.383 195.045 318.307 195.053C317.789 195.057 317.275 194.956 316.798 194.754C316.32 194.553 315.888 194.256 315.529 193.882C315.17 193.509 314.892 193.065 314.71 192.58C314.528 192.094 314.448 191.577 314.473 191.059C314.534 189.985 315.001 188.975 315.78 188.233C316.559 187.491 317.591 187.074 318.667 187.065C319.186 187.059 319.7 187.159 320.179 187.36C320.657 187.56 321.09 187.857 321.449 188.231C321.808 188.606 322.087 189.05 322.268 189.536C322.449 190.023 322.528 190.541 322.501 191.059Z" fill="#263238"/>
<path d="M283.573 258.611C283.509 259.684 283.041 260.692 282.262 261.433C281.484 262.175 280.454 262.593 279.379 262.605C278.861 262.609 278.347 262.507 277.869 262.306C277.392 262.105 276.96 261.808 276.601 261.434C276.242 261.06 275.963 260.617 275.782 260.131C275.6 259.646 275.52 259.128 275.545 258.611C275.606 257.537 276.073 256.526 276.852 255.784C277.631 255.043 278.663 254.625 279.739 254.617C280.257 254.612 280.771 254.714 281.248 254.915C281.726 255.117 282.158 255.413 282.517 255.787C282.876 256.161 283.154 256.605 283.336 257.09C283.518 257.576 283.598 258.093 283.573 258.611Z" fill="#263238"/>
<path d="M301.519 258.611C301.459 259.682 300.993 260.691 300.217 261.432C299.441 262.174 298.412 262.593 297.339 262.605C296.82 262.611 296.305 262.511 295.827 262.31C295.348 262.109 294.916 261.813 294.557 261.438C294.197 261.064 293.918 260.62 293.737 260.134C293.557 259.647 293.477 259.129 293.505 258.611C293.566 257.537 294.033 256.526 294.812 255.784C295.591 255.043 296.623 254.625 297.698 254.617C298.216 254.612 298.729 254.714 299.206 254.915C299.683 255.117 300.114 255.414 300.472 255.788C300.83 256.162 301.107 256.606 301.288 257.091C301.468 257.576 301.547 258.094 301.519 258.611Z" fill="#263238"/>
<path d="M319.519 258.611C319.458 259.685 318.99 260.695 318.211 261.437C317.433 262.179 316.4 262.596 315.325 262.605C314.807 262.607 314.294 262.504 313.817 262.302C313.341 262.1 312.91 261.803 312.551 261.43C312.193 261.056 311.914 260.614 311.731 260.129C311.549 259.645 311.467 259.128 311.491 258.611C311.555 257.538 312.023 256.529 312.801 255.788C313.579 255.047 314.61 254.628 315.684 254.617C316.203 254.61 316.718 254.711 317.196 254.911C317.675 255.112 318.107 255.409 318.467 255.783C318.826 256.157 319.105 256.601 319.286 257.088C319.467 257.574 319.546 258.092 319.519 258.611Z" fill="#263238"/>
<path d="M337.438 258.611C337.375 259.684 336.906 260.692 336.128 261.433C335.35 262.175 334.319 262.593 333.245 262.605C332.727 262.607 332.214 262.504 331.737 262.302C331.261 262.1 330.83 261.803 330.471 261.43C330.113 261.056 329.834 260.614 329.651 260.129C329.469 259.645 329.387 259.128 329.411 258.611C329.474 257.538 329.943 256.529 330.721 255.788C331.499 255.047 332.53 254.628 333.604 254.617C334.123 254.612 334.636 254.714 335.114 254.915C335.592 255.117 336.023 255.413 336.382 255.787C336.741 256.161 337.02 256.605 337.202 257.09C337.383 257.576 337.464 258.093 337.438 258.611Z" fill="#263238"/>
<path d="M355.465 258.611C355.401 259.684 354.932 260.692 354.154 261.433C353.376 262.175 352.346 262.593 351.271 262.605C350.752 262.611 350.238 262.511 349.759 262.31C349.28 262.109 348.848 261.813 348.489 261.438C348.129 261.064 347.851 260.62 347.67 260.134C347.489 259.647 347.409 259.129 347.437 258.611C347.498 257.537 347.965 256.526 348.744 255.784C349.523 255.043 350.555 254.625 351.63 254.617C352.149 254.612 352.663 254.714 353.14 254.915C353.618 255.117 354.049 255.413 354.408 255.787C354.767 256.161 355.046 256.605 355.228 257.09C355.41 257.576 355.49 258.093 355.465 258.611Z" fill="#263238"/>
<path d="M352.74 95.9164C358.312 90.4672 358.608 81.7328 353.4 76.4075C348.193 71.0823 339.454 71.1828 333.882 76.632C328.309 82.0812 328.014 90.8156 333.221 96.1409C338.429 101.466 347.168 101.366 352.74 95.9164Z" fill="#455A64"/>
<path d="M369.497 117.729C366.18 122.075 361.911 125.603 357.019 128.042C352.126 130.482 346.74 131.768 341.273 131.802C335.972 131.847 330.741 130.586 326.041 128.132C321.342 125.678 317.319 122.106 314.327 117.729C320.797 111.286 331.035 107.079 342.378 107.079C353.721 107.079 363.599 111.286 369.497 117.729Z" fill="#455A64"/>
<path opacity="0.1" d="M352.74 95.9164C358.312 90.4672 358.608 81.7328 353.4 76.4075C348.193 71.0823 339.454 71.1828 333.882 76.632C328.309 82.0812 328.014 90.8156 333.221 96.1409C338.429 101.466 347.168 101.366 352.74 95.9164Z" fill="white"/>
<path opacity="0.1" d="M369.497 117.729C366.18 122.075 361.911 125.603 357.019 128.042C352.126 130.482 346.74 131.768 341.273 131.802C335.972 131.847 330.741 130.586 326.041 128.132C321.342 125.678 317.319 122.106 314.327 117.729C320.797 111.286 331.035 107.079 342.378 107.079C353.721 107.079 363.599 111.286 369.497 117.729Z" fill="white"/>
<path d="M173.619 209.604C172.354 212.374 171.023 215.422 169.864 218.378C168.706 221.333 167.521 224.382 166.496 227.418C164.403 233.4 162.809 239.545 161.73 245.79L161.437 247.747C161.409 248.083 161.441 248.421 161.53 248.745C161.844 249.849 162.339 250.893 162.995 251.834C164.704 254.271 166.688 256.505 168.906 258.491C171.244 260.666 173.698 262.715 176.255 264.628C178.811 266.599 181.5 268.516 184.15 270.326L181.66 274.999C175.334 272.243 169.329 268.801 163.754 264.735C160.779 262.565 158.095 260.024 155.766 257.173C154.385 255.475 153.309 253.552 152.584 251.488C152.162 250.198 151.947 248.851 151.945 247.494C151.945 247.174 151.945 246.708 151.945 246.482V245.83L152.078 244.498C152.841 237.562 154.3 230.72 156.431 224.076C157.47 220.801 158.575 217.539 159.839 214.357C161.104 211.175 162.409 208.06 164.02 204.825L173.619 209.604Z" fill="#E58A7B"/>
<path d="M182.272 269.501L191.685 264.735L189.248 275.066C189.248 275.066 182.792 276.876 179.796 273.734L182.272 269.501Z" fill="#E58A7B"/>
<path d="M200.298 266.426L197.795 274.973L189.248 275.066L191.685 264.735L200.298 266.426Z" fill="#E58A7B"/>
<path d="M213.585 159.759C214.089 161.604 214.789 163.39 215.675 165.085C215.417 165.378 215.083 165.596 214.711 165.716C214.338 165.835 213.94 165.852 213.559 165.764L213.585 159.759Z" fill="#DF5753"/>
<path d="M213.306 159.839C213.857 159.839 214.304 159.154 214.304 158.308C214.304 157.463 213.857 156.777 213.306 156.777C212.754 156.777 212.307 157.463 212.307 158.308C212.307 159.154 212.754 159.839 213.306 159.839Z" fill="#263238"/>
<path d="M213.013 156.831L215.036 156.258C215.036 156.258 214.051 157.829 213.013 156.831Z" fill="#263238"/>
<path d="M187.584 169.531C188.796 175.722 190.007 187.078 185.667 191.219C185.667 191.219 187.371 197.503 198.887 197.503C211.548 197.503 204.932 191.219 204.932 191.219C198.022 189.568 198.195 184.442 199.407 179.623L187.584 169.531Z" fill="#E58A7B"/>
<path d="M184.216 155.419C184.855 165.764 184.908 170.157 190.127 175.469C197.995 183.457 210.563 180.422 213.026 170.144C215.249 160.825 213.838 145.488 203.707 141.374C201.483 140.458 199.062 140.124 196.673 140.404C194.284 140.685 192.006 141.57 190.055 142.976C188.104 144.382 186.543 146.263 185.522 148.44C184.5 150.618 184.05 153.02 184.216 155.419Z" fill="#E58A7B"/>
<path d="M185.241 143.783C180.049 145.674 173.126 144.263 175.842 160.279C178.718 177.24 174.298 182.818 174.298 182.818C174.298 182.818 193.988 187.012 214.091 182.565C214.091 182.565 207.954 171.835 209.671 163.927C211.868 153.942 210.137 150.254 210.137 150.254C210.137 150.254 192.537 141.121 185.241 143.783Z" fill="#263238"/>
<path d="M207.208 160.811C207.213 162.778 207.776 164.703 208.832 166.363C210.243 168.52 211.907 167.694 212.32 165.404C212.693 163.394 212.413 159.839 210.616 158.455C208.819 157.07 207.235 158.428 207.208 160.811Z" fill="#E58A7B"/>
<path d="M180.728 145.528C179.237 141.334 186.346 134.877 201.39 137.54C216.434 140.202 217.086 152.73 217.086 152.73L214.051 149.109L214.184 152.916L198.727 155.885L180.728 145.528Z" fill="#263238"/>
<path d="M182.006 191.924C181.917 191.316 182.069 190.698 182.43 190.201C182.79 189.703 183.331 189.366 183.936 189.262C188.623 188.489 199.273 186.919 204.625 187.664C208.619 188.223 209.658 190.54 209.831 192.444C209.858 192.777 209.813 193.112 209.7 193.427C209.587 193.742 209.407 194.028 209.174 194.268C208.941 194.508 208.659 194.695 208.347 194.816C208.036 194.938 207.702 194.991 207.368 194.973L184.229 193.935C183.684 193.907 183.164 193.692 182.759 193.326C182.354 192.959 182.088 192.464 182.006 191.924Z" fill="#455A64"/>
<path opacity="0.6" d="M182.006 191.924C181.917 191.316 182.069 190.698 182.43 190.201C182.79 189.703 183.331 189.366 183.936 189.262C188.623 188.489 199.273 186.919 204.625 187.664C208.619 188.223 209.658 190.54 209.831 192.444C209.858 192.777 209.813 193.112 209.7 193.427C209.587 193.742 209.407 194.028 209.174 194.268C208.941 194.508 208.659 194.695 208.347 194.816C208.036 194.938 207.702 194.991 207.368 194.973L184.229 193.935C183.684 193.907 183.164 193.692 182.759 193.326C182.354 192.959 182.088 192.464 182.006 191.924Z" fill="black"/>
<path d="M195.386 424.507L203.973 430.472L218.338 410.995L209.751 405.043L195.386 424.507Z" fill="#E58A7B"/>
<path d="M175.363 424.121L184.429 429.287L197.143 408.691L188.077 403.526L175.363 424.121Z" fill="#E58A7B"/>
<path d="M218.324 410.995L210.922 421.033L202.335 415.082L209.737 405.043L218.324 410.995Z" fill="#CF6F64"/>
<path d="M188.064 403.526L197.143 408.705L190.593 419.315L181.513 414.137L188.064 403.526Z" fill="#CF6F64"/>
<path d="M202.628 256.946C202.628 256.946 236.151 299.19 229.854 339.595C224.782 372.226 195.359 416.413 195.359 416.413L181.527 409.543C191.277 390.007 199.597 369.788 206.423 349.048C208.527 342.609 209.142 335.775 208.219 329.064C207.297 322.353 204.861 315.939 201.097 310.306C184.109 285.503 156.897 300.268 175.203 256.946H202.628Z" fill="#455A64"/>
<path opacity="0.6" d="M202.628 256.946C202.628 256.946 236.151 299.19 229.854 339.595C224.782 372.226 195.359 416.413 195.359 416.413L181.527 409.543C191.277 390.007 199.597 369.788 206.423 349.048C208.527 342.609 209.142 335.775 208.219 329.064C207.297 322.353 204.861 315.939 201.097 310.306C184.109 285.503 156.897 300.268 175.203 256.946H202.628Z" fill="black"/>
<path opacity="0.4" d="M219.07 284.079L214.198 279.233C214.198 279.619 223.637 337.891 226.286 354.267C227.85 349.483 229.047 344.587 229.867 339.622C232.983 319.799 226.472 299.549 219.07 284.079Z" fill="black"/>
<path d="M217.593 256.946C217.593 256.946 257.958 310.04 259.103 341.872C260.049 368.499 215.169 420.088 215.169 420.088L202.122 411.647C202.122 411.647 228.39 375.009 235.006 345.08C232.45 315.418 178.398 256.946 178.398 256.946H217.593Z" fill="#455A64"/>
<path opacity="0.6" d="M217.593 256.946C217.593 256.946 257.958 310.04 259.103 341.872C260.049 368.499 215.169 420.088 215.169 420.088L202.122 411.647C202.122 411.647 228.39 375.009 235.006 345.08C232.45 315.418 178.398 256.946 178.398 256.946H217.593Z" fill="black"/>
<path d="M167.654 193.589C163.341 194.614 159.2 210.297 159.2 210.297L176.068 221.56C176.068 221.56 181.686 209.152 179.716 203.72C177.679 198.062 173.073 192.297 167.654 193.589Z" fill="#455A64"/>
<path opacity="0.2" d="M170.956 203.693L169.784 217.366L176.055 221.573C177.786 217.675 179.068 213.593 179.876 209.405L170.956 203.693Z" fill="black"/>
<path d="M222.585 193.895C222.585 193.895 227.564 195.639 217.592 256.933H175.176C175.895 239.626 175.909 228.975 167.654 193.589C173.593 192.365 179.614 191.573 185.667 191.219C192.08 190.759 198.518 190.759 204.932 191.219C213.212 191.978 222.585 193.895 222.585 193.895Z" fill="#455A64"/>
<path d="M226.898 203.693C227.857 206.356 228.869 209.218 229.934 211.974C230.999 214.73 232.011 217.566 233.089 220.362L236.351 228.722L237.176 230.812L237.602 231.851L237.802 232.37C237.802 232.463 237.802 232.463 237.802 232.45C237.559 232.107 237.24 231.825 236.87 231.625C236.343 231.315 235.749 231.137 235.139 231.105C234.632 231.09 234.128 231.185 233.661 231.385C233.049 231.665 233.049 231.784 233.062 231.771C233.173 231.682 233.271 231.579 233.355 231.465C234.092 230.497 234.73 229.458 235.259 228.363C235.885 227.138 236.484 225.833 237.083 224.515C238.254 221.853 239.333 219.097 240.411 216.314C241.49 213.532 242.515 210.723 243.513 207.887L246.549 199.393L251.674 200.724C250.662 206.795 249.358 212.706 247.787 218.724C247.028 221.72 246.136 224.688 245.124 227.684C244.618 229.188 244.059 230.679 243.42 232.21C242.754 233.872 241.934 235.468 240.97 236.977C240.616 237.484 240.225 237.965 239.799 238.414C239.119 239.149 238.294 239.734 237.376 240.132C236.561 240.482 235.679 240.645 234.793 240.611C233.801 240.574 232.834 240.286 231.984 239.772C230.981 239.146 230.149 238.282 229.561 237.256C229.361 236.91 229.188 236.564 229.068 236.311L228.815 235.805L228.309 234.767L227.298 232.703C225.966 229.934 224.635 227.138 223.477 224.329C222.318 221.52 221.094 218.671 219.949 215.808C218.804 212.946 217.779 210.084 216.807 206.995L226.898 203.693Z" fill="#E58A7B"/>
<path d="M222.585 193.895C227.684 195.106 233.422 210.177 233.422 210.177L218.258 223.077C218.258 223.077 208.446 206.649 210.43 201.23C212.494 195.586 215.928 192.31 222.585 193.895Z" fill="#455A64"/>
<path d="M248.959 194.627L254.284 190.18L257.985 195.945L255.256 200.751C255.256 200.751 250.916 204.745 247.081 202.708C246.473 201.34 246.327 199.811 246.666 198.353C247.004 196.895 247.809 195.587 248.959 194.627Z" fill="#E58A7B"/>
<path d="M263.896 190.194L263.497 191.645L255.069 193.056L254.244 190.18L263.896 190.194Z" fill="#E58A7B"/>
<path d="M216.208 420.767L201.004 410.941L203.733 406.202L220.814 416.706L216.208 420.767Z" fill="#455A64"/>
<path d="M190.38 428.595C189.046 428.432 187.764 427.977 186.626 427.263C186.579 427.247 186.538 427.216 186.509 427.176C186.48 427.135 186.465 427.087 186.465 427.037C186.465 426.987 186.48 426.939 186.509 426.898C186.538 426.858 186.579 426.827 186.626 426.811C187.038 426.678 190.62 425.573 191.658 426.425C191.775 426.522 191.864 426.648 191.915 426.791C191.967 426.934 191.979 427.088 191.951 427.237C191.933 427.476 191.853 427.707 191.72 427.908C191.588 428.108 191.406 428.271 191.192 428.382C190.943 428.518 190.664 428.591 190.38 428.595ZM187.385 427.13C189.049 427.982 190.38 428.289 191.019 427.969C191.158 427.892 191.275 427.78 191.359 427.645C191.443 427.51 191.491 427.356 191.498 427.197C191.498 426.984 191.498 426.891 191.379 426.837C190.819 426.385 188.822 426.731 187.358 427.13H187.385Z" fill="#263238"/>
<path d="M186.719 427.357C186.649 427.356 186.582 427.327 186.533 427.277C186.513 427.24 186.502 427.199 186.502 427.157C186.502 427.115 186.513 427.074 186.533 427.037C186.533 426.917 187.398 424.028 188.756 423.376C188.929 423.297 189.118 423.256 189.308 423.256C189.499 423.256 189.688 423.297 189.861 423.376C190.048 423.435 190.21 423.555 190.321 423.717C190.432 423.878 190.485 424.072 190.473 424.268C190.38 425.466 187.944 427.117 186.826 427.397L186.719 427.357ZM189.302 423.722C189.172 423.726 189.045 423.758 188.929 423.815C188.104 424.215 187.425 425.772 187.092 426.718C188.263 426.225 189.874 424.92 189.928 424.188C189.928 424.068 189.928 423.922 189.621 423.789C189.522 423.735 189.414 423.699 189.302 423.682V423.722Z" fill="#263238"/>
<path d="M209.378 434.346C207.874 434.346 205.784 432.416 204.639 431.231C204.609 431.19 204.594 431.141 204.594 431.091C204.594 431.041 204.609 430.992 204.639 430.951C204.665 430.908 204.702 430.873 204.747 430.85C204.791 430.827 204.841 430.816 204.892 430.818C205.424 430.818 210.044 431.51 210.696 432.815C210.765 432.932 210.802 433.065 210.802 433.201C210.802 433.337 210.765 433.47 210.696 433.587C210.598 433.791 210.451 433.966 210.267 434.096C210.083 434.226 209.869 434.308 209.644 434.333L209.378 434.346ZM205.517 431.417C207.195 433.041 208.673 433.947 209.511 433.84C209.658 433.821 209.798 433.766 209.919 433.68C210.04 433.594 210.137 433.48 210.204 433.348C210.233 433.302 210.249 433.249 210.249 433.195C210.249 433.14 210.233 433.087 210.204 433.041C209.857 432.323 207.394 431.71 205.517 431.417Z" fill="#263238"/>
<path d="M205.664 431.351C205.365 431.359 205.066 431.337 204.772 431.284C204.731 431.278 204.692 431.261 204.659 431.235C204.626 431.21 204.601 431.176 204.585 431.138C204.565 431.098 204.555 431.055 204.555 431.011C204.555 430.967 204.565 430.924 204.585 430.885C204.665 430.791 206.462 428.621 208.167 428.475C208.649 428.437 209.127 428.59 209.498 428.901C210.017 429.354 209.991 429.753 209.857 430.006C209.525 430.911 207.221 431.351 205.664 431.351ZM205.318 430.858C206.809 430.938 209.192 430.445 209.498 429.793C209.498 429.793 209.604 429.58 209.258 429.287C209.121 429.167 208.96 429.077 208.786 429.022C208.612 428.967 208.428 428.949 208.246 428.968C207.099 429.288 206.076 429.952 205.318 430.871V430.858Z" fill="#263238"/>
<path d="M187.078 425.919L175.789 422.724C175.594 422.665 175.385 422.68 175.2 422.766C175.016 422.852 174.87 423.003 174.79 423.19L170.983 431.75C170.893 431.969 170.851 432.205 170.859 432.442C170.868 432.678 170.926 432.91 171.03 433.123C171.135 433.335 171.283 433.523 171.465 433.675C171.647 433.826 171.859 433.937 172.088 434C176.082 435.038 177.999 435.331 182.965 436.756C186.027 437.608 190.393 439.192 194.614 440.39C198.834 441.589 200.245 437.475 198.608 436.596C191.205 432.682 190.62 429.939 188.596 427.01C188.234 426.48 187.697 426.094 187.078 425.919Z" fill="#455A64"/>
<path d="M204.945 429.673L195.306 423.016C195.143 422.897 194.941 422.842 194.74 422.862C194.539 422.882 194.352 422.975 194.214 423.123L187.824 429.993C187.668 430.17 187.552 430.379 187.483 430.605C187.414 430.831 187.394 431.069 187.425 431.303C187.455 431.537 187.535 431.762 187.658 431.963C187.782 432.164 187.948 432.337 188.143 432.469C191.538 434.745 193.296 435.664 197.543 438.606C200.205 440.417 205.358 444.438 208.952 446.94C212.547 449.443 215.223 446.008 213.945 444.651C208.22 438.54 206.968 434.706 206.023 431.231C205.859 430.6 205.477 430.049 204.945 429.673Z" fill="#455A64"/>
<path d="M197.13 417.292L179.756 408.651L181.553 403.938L200.112 413.045L197.13 417.292Z" fill="#455A64"/>
<path d="M174.537 254.443L173.073 258.278C172.926 258.571 173.272 258.877 173.765 258.877H217.805C218.191 258.877 218.511 258.69 218.538 258.451L218.91 254.643C218.91 254.39 218.604 254.164 218.191 254.164H175.229C175.1 254.152 174.97 254.171 174.849 254.219C174.729 254.268 174.622 254.345 174.537 254.443Z" fill="#455A64"/>
<path opacity="0.4" d="M174.537 254.443L173.073 258.278C172.926 258.571 173.272 258.877 173.765 258.877H217.805C218.191 258.877 218.511 258.69 218.538 258.451L218.91 254.643C218.91 254.39 218.604 254.164 218.191 254.164H175.229C175.1 254.152 174.97 254.171 174.849 254.219C174.729 254.268 174.622 254.345 174.537 254.443Z" fill="white"/>
<path d="M181.473 259.25H180.315C180.089 259.25 179.916 259.13 179.929 258.983L180.475 254.044C180.475 253.911 180.688 253.791 180.914 253.791H182.073C182.299 253.791 182.472 253.911 182.459 254.044L181.913 258.983C181.899 259.13 181.7 259.25 181.473 259.25Z" fill="#455A64"/>
<path d="M208.632 259.25H207.488C207.261 259.25 207.088 259.13 207.101 258.983L207.634 254.044C207.634 253.911 207.86 253.791 208.087 253.791H209.232C209.458 253.791 209.644 253.911 209.618 254.044L209.085 258.983C209.019 259.13 208.872 259.25 208.632 259.25Z" fill="#455A64"/>
<g style="mix-blend-mode:multiply">
<path d="M180.462 484.71C200.16 484.71 216.128 483.554 216.128 482.128C216.128 480.701 200.16 479.545 180.462 479.545C160.764 479.545 144.795 480.701 144.795 482.128C144.795 483.554 160.764 484.71 180.462 484.71Z" fill="#F5F5F5"/>
</g>
<path d="M202.189 478.48C195.879 476.642 188.876 474.286 184.642 471.823C184.522 471.743 184.389 471.703 184.269 471.637V443.066H197.037C198.006 443.009 198.917 442.584 199.583 441.877C200.248 441.171 200.619 440.236 200.619 439.265C200.619 438.295 200.248 437.36 199.583 436.654C198.917 435.947 198.006 435.522 197.037 435.464H184.336V305.234H176.667V435.464H163.98C163.462 435.434 162.943 435.509 162.455 435.686C161.967 435.864 161.521 436.139 161.143 436.495C160.766 436.851 160.465 437.28 160.259 437.756C160.053 438.233 159.947 438.746 159.947 439.265C159.947 439.784 160.053 440.298 160.259 440.774C160.465 441.251 160.766 441.68 161.143 442.036C161.521 442.392 161.967 442.667 162.455 442.844C162.943 443.021 163.462 443.097 163.98 443.066H176.667V471.597C176.548 471.597 176.428 471.703 176.308 471.783C172.008 474.286 165.058 476.642 158.748 478.44C158.321 478.569 157.955 478.846 157.716 479.221C157.476 479.597 157.379 480.046 157.442 480.487C157.505 480.927 157.723 481.331 158.058 481.625C158.393 481.919 158.822 482.083 159.267 482.088H201.67C202.095 482.059 202.498 481.885 202.811 481.594C203.123 481.304 203.327 480.916 203.388 480.494C203.449 480.071 203.363 479.641 203.145 479.275C202.926 478.908 202.589 478.628 202.189 478.48Z" fill="#E0E0E0"/>
<path d="M204.146 291.974H156.804C152.995 291.974 149.908 295.061 149.908 298.87V312.942C149.908 316.751 152.995 319.838 156.804 319.838H204.146C207.955 319.838 211.042 316.751 211.042 312.942V298.87C211.042 295.061 207.955 291.974 204.146 291.974Z" fill="#455A64"/>
<path d="M156.365 319.852V322.275C156.365 324.272 158.535 325.896 161.197 325.896H199.806C202.469 325.896 204.639 324.272 204.639 322.275V319.852H156.365Z" fill="#455A64"/>
<path opacity="0.3" d="M156.365 319.852V322.275C156.365 324.272 158.535 325.896 161.197 325.896H199.806C202.469 325.896 204.639 324.272 204.639 322.275V319.852H156.365Z" fill="white"/>
</svg>
